<mxfile host="app.diagrams.net" modified="2023-11-10T02:03:41.560Z" agent="Mozilla/5.0 (Windows NT 10.0; Win64; x64) AppleWebKit/537.36 (KHTML, like Gecko) Chrome/119.0.0.0 Safari/537.36 Edg/119.0.0.0" version="22.1.0" etag="LWs3EwsyFHX2JUup1F49" type="github">
  <diagram name="페이지-1" id="oAwOid7jvnyIaOeV3X1j">
    <mxGraphModel>
      <root>
        <mxCell id="0" />
        <mxCell id="1" parent="0" />
      </root>
    </mxGraphModel>
  </diagram>
</mxfile>
